<?xml version="1.0" encoding="UTF-8"?>
<!DOCTYPE svg  PUBLIC '-//W3C//DTD SVG 1.1//EN'  'http://www.w3.org/Graphics/SVG/1.1/DTD/svg11.dtd'>
<svg enable-background="new 0 0 612 612" version="1.1" viewBox="0 0 612 612" xml:space="preserve" xmlns="http://www.w3.org/2000/svg">	
	<path d="m130.2 157.25c7.478 7.478 19.584 7.478 27.042 0 7.459-7.478 7.459-19.584 0-27.042l-40.563-40.584c-7.478-7.478-19.584-7.478-27.043 0-7.478 7.478-7.478 19.584 0 27.043l40.564 40.583zm11.513 286.26-40.182 40.182c-7.401 7.401-7.401 19.393 0 26.794s19.393 7.401 26.794 0l40.182-40.182c7.401-7.401 7.401-19.393 0-26.794s-19.392-7.402-26.794 0zm164.28-347.88c10.557 0 19.125-8.568 19.125-19.125v-57.375c0-10.557-8.568-19.125-19.125-19.125s-19.125 8.568-19.125 19.125v57.375c0 10.557 8.568 19.125 19.125 19.125zm184 53.167 40.182-40.182c7.401-7.401 7.401-19.393 0-26.794s-19.394-7.401-26.795 0l-40.182 40.182c-7.401 7.401-7.401 19.393 0 26.794 7.402 7.402 19.394 7.402 26.795 0zm-413.5 138.08h-57.375c-10.557 0-19.125 8.568-19.125 19.125s8.568 19.125 19.125 19.125h57.375c10.557 0 19.125-8.568 19.125-19.125s-8.568-19.125-19.125-19.125zm229.5 229.5c-10.557 0-19.125 8.568-19.125 19.125v57.375c0 10.557 8.568 19.125 19.125 19.125s19.125-8.568 19.125-19.125v-57.375c0-10.557-8.568-19.125-19.125-19.125zm286.88-229.5h-57.375c-10.557 0-19.125 8.568-19.125 19.125s8.568 19.125 19.125 19.125h57.375c10.557 0 19.125-8.568 19.125-19.125s-8.568-19.125-19.125-19.125zm-111.08 167.88c-7.478-7.478-19.584-7.478-27.043 0-7.478 7.479-7.478 19.584 0 27.043l40.564 40.564c7.478 7.478 19.584 7.478 27.043 0 7.459-7.479 7.478-19.584 0-27.043l-40.564-40.564zm-175.8-320.99c-95.128 0-172.24 77.112-172.24 172.24s77.112 172.24 172.24 172.24 172.24-77.112 172.24-172.24-77.112-172.24-172.24-172.24z"/>
</svg>
